<svg xmlns="http://www.w3.org/2000/svg" width="25" height="24" viewBox="0 0 25 24" fill="none">
  <path d="M12.5938 20.25C12.5938 20.25 3.21875 15 3.21875 8.625C3.21894 7.49825 3.60936 6.40634 4.32364 5.53492C5.03791 4.6635 6.03195 4.06635 7.13674 3.845C8.24153 3.62366 9.38889 3.79178 10.3837 4.32078C11.3786 4.84978 12.1595 5.70701 12.5938 6.74672L12.5937 6.74672C13.028 5.70701 13.8089 4.84978 14.8038 4.32078C15.7986 3.79178 16.946 3.62366 18.0508 3.845C19.1556 4.06635 20.1496 4.6635 20.8639 5.53492C21.5781 6.40634 21.9686 7.49825 21.9688 8.625C21.9688 15 12.5938 20.25 12.5938 20.25Z" stroke-width="1.5" stroke-linecap="round" stroke-linejoin="round"/>
</svg>