<svg xmlns="http://www.w3.org/2000/svg" width="21" height="20" viewBox="0 0 21 20" fill="none">
  <path d="M3 16.25V5C3 4.83424 3.06585 4.67527 3.18306 4.55806C3.30027 4.44085 3.45924 4.375 3.625 4.375H7.79167C7.9269 4.375 8.05848 4.41886 8.16667 4.5L10.3333 6.125C10.4415 6.20614 10.5731 6.25 10.7083 6.25H16.125C16.2908 6.25 16.4497 6.31585 16.5669 6.43306C16.6842 6.55027 16.75 6.70924 16.75 6.875V8.75" stroke-width="1.3" stroke-linecap="round" stroke-linejoin="round"/>
  <path d="M3 16.25L5.34285 10.3929C5.38924 10.2769 5.46932 10.1775 5.57275 10.1075C5.67619 10.0374 5.79823 10 5.92315 10H9.68576C9.80916 10 9.92979 9.96348 10.0325 9.89503L11.5925 8.85497C11.6952 8.78652 11.8158 8.75 11.9392 8.75H18.3829C18.4819 8.75 18.5795 8.77353 18.6677 8.81866C18.7558 8.86379 18.832 8.92922 18.8899 9.00956C18.9478 9.0899 18.9858 9.18284 19.0007 9.28074C19.0156 9.37864 19.0071 9.47869 18.9758 9.57264L16.75 16.25H3Z" stroke-width="1.3" stroke-linecap="round" stroke-linejoin="round"/>
</svg>