<svg
        xmlns="http://www.w3.org/2000/svg"
        width="18"
        height="19"
        viewBox="0 0 18 19"
        fill="none"
      >
        <path
          d="M17.992 18.5002V18.4994H17.9965V11.8979C17.9965 8.66841 17.3012 6.18066 13.5257 6.18066C11.7107 6.18066 10.4927 7.17666 9.99548 8.12091H9.94298V6.48216H6.36322V18.4994H10.0907V12.5489C10.0907 10.9822 10.3877 9.46716 12.328 9.46716C14.2397 9.46716 14.2682 11.2552 14.2682 12.6494V18.5002H17.992Z"
          fill="white"
        />
        <path
          d="M0.293488 6.48291H4.02549V18.5002H0.293488V6.48291Z"
          fill="white"
        />
        <path
          d="M2.15799 0.5C0.96474 0.5 -0.00350952 1.46825 -0.00350952 2.6615C-0.00350952 3.85475 0.96474 4.84325 2.15799 4.84325C3.35124 4.84325 4.31949 3.85475 4.31949 2.6615C4.31874 1.46825 3.35049 0.5 2.15799 0.5V0.5Z"
          fill="white"
        />
      </svg>