<svg xmlns="http://www.w3.org/2000/svg" width="25" height="24" viewBox="0 0 25 24" fill="none">
  <path d="M9.5 12.001H15.5"  stroke-width="1.5" stroke-linecap="round" stroke-linejoin="round"/>
  <path d="M9.5 15.001H15.5" stroke-width="1.5" stroke-linecap="round" stroke-linejoin="round"/>
  <path d="M5.75 3.75098H19.25C19.4489 3.75098 19.6397 3.82999 19.7803 3.97065C19.921 4.1113 20 4.30206 20 4.50098V18.751C20 19.3477 19.7629 19.92 19.341 20.342C18.919 20.7639 18.3467 21.001 17.75 21.001H7.25C6.65326 21.001 6.08097 20.7639 5.65901 20.342C5.23705 19.92 5 19.3477 5 18.751V4.50098C5 4.30206 5.07902 4.1113 5.21967 3.97065C5.36032 3.82999 5.55109 3.75098 5.75 3.75098Z"  stroke-width="1.5" stroke-linecap="round" stroke-linejoin="round"/>
  <path d="M8 2.25098V5.25098"  stroke-width="1.5" stroke-linecap="round" stroke-linejoin="round"/>
  <path d="M12.5 2.25098V5.25098"  stroke-width="1.5" stroke-linecap="round" stroke-linejoin="round"/>
  <path d="M17 2.25098V5.25098"  stroke-width="1.5" stroke-linecap="round" stroke-linejoin="round"/>
</svg>