 <svg
        xmlns="http://www.w3.org/2000/svg"
        width="18"
        height="19"
        viewBox="0 0 18 19"
        fill="none"
      >
        <g clip-path="url(#clip0_4786_18379)">
          <path
            d="M17.9965 4.23138C17.3271 4.525 16.6138 4.71962 15.8702 4.81412C16.6352 4.35737 17.2191 3.63962 17.4936 2.7745C16.7803 3.19975 15.9928 3.50013 15.1536 3.66775C14.4763 2.94663 13.5111 2.5 12.4581 2.5C10.4151 2.5 8.77033 4.15825 8.77033 6.19113C8.77033 6.48363 8.79508 6.76487 8.85583 7.03262C5.78796 6.883 3.07333 5.41263 1.24971 3.17275C0.931335 3.72513 0.744585 4.35738 0.744585 5.038C0.744585 6.316 1.40271 7.44887 2.38371 8.10475C1.79083 8.0935 1.20921 7.92138 0.71646 7.65025C0.71646 7.6615 0.71646 7.67612 0.71646 7.69075C0.71646 9.484 1.99558 10.9735 3.67296 11.3166C3.37258 11.3987 3.04521 11.4381 2.70546 11.4381C2.46921 11.4381 2.23071 11.4246 2.00683 11.3751C2.48496 12.8365 3.84171 13.9109 5.45496 13.9457C4.19946 14.9279 2.60534 15.5196 0.879585 15.5196C0.57696 15.5196 0.28671 15.5061 -0.00354004 15.469C1.63108 16.5231 3.56834 17.125 5.65746 17.125C12.448 17.125 16.1605 11.5 16.1605 6.62425C16.1605 6.46112 16.1548 6.30363 16.147 6.14725C16.8793 5.6275 17.4947 4.97838 17.9965 4.23138Z"
            fill="white"
          />
        </g>
        <defs>
          <clipPath id="clip0_4786_18379">
            <rect
              width="18"
              height="18"
              fill="white"
              transform="translate(-0.00354004 0.5)"
            />
          </clipPath>
        </defs>
      </svg>