<svg
        xmlns="http://www.w3.org/2000/svg"
        width="18"
        height="19"
        viewBox="0 0 18 19"
        fill="none"
      >
        <path
          fill-rule="evenodd"
          clip-rule="evenodd"
          d="M16.0392 3.88548C16.8101 4.09312 17.4181 4.70094 17.6256 5.47204C18.0112 6.88048 17.9964 9.81629 17.9964 9.81629C17.9964 9.81629 17.9964 12.7371 17.6257 14.1457C17.4181 14.9167 16.8103 15.5246 16.0392 15.7321C14.6306 16.1029 8.99642 16.1029 8.99642 16.1029C8.99642 16.1029 3.37694 16.1029 1.95367 15.7174C1.18257 15.5098 0.57475 14.9018 0.36711 14.1309C-0.00354004 12.7371 -0.00354004 9.80146 -0.00354004 9.80146C-0.00354004 9.80146 -0.00354004 6.88048 0.36711 5.47204C0.574613 4.70108 1.1974 4.07829 1.95353 3.87079C3.36211 3.5 8.99629 3.5 8.99629 3.5C8.99629 3.5 14.6306 3.5 16.0392 3.88548ZM11.8878 9.80154L7.20251 12.5001V7.10303L11.8878 9.80154Z"
          fill="white"
        />
      </svg>