<svg width="42" height="40" viewBox="0 0 42 40" fill="none" xmlns="http://www.w3.org/2000/svg">
<rect width="42" height="40" fill="#CED1D9"/>
<g clip-path="url(#clip0_2118_61474)">
<rect width="1920" height="6000" transform="translate(-31 -85)" fill="white"/>
<g filter="url(#filter0_i_2118_61474)">
<rect width="1920" height="107" transform="translate(-31 -33)" fill="white"/>
<path d="M2.25 15L21 5L39.75 15L21 25L2.25 15Z" stroke="#FF6636" stroke-width="3" stroke-linecap="round" stroke-linejoin="round"/>
<path d="M30.375 37.5V20L21 15" stroke="#FF6636" stroke-width="3" stroke-linecap="round" stroke-linejoin="round"/>
<path d="M35.375 17.3333V25.8521C35.3755 26.1218 35.2884 26.3843 35.1266 26.6001C34.074 28.0008 29.6333 33.1249 21 33.1249C12.3667 33.1249 7.92597 28.0008 6.87336 26.6001C6.71165 26.3843 6.62449 26.1218 6.625 25.8521V17.3333" stroke="#FF6636" stroke-width="3" stroke-linecap="round" stroke-linejoin="round"/>
</g>
</g>
<defs>
<filter id="filter0_i_2118_61474" x="-31" y="-33" width="1920" height="107" filterUnits="userSpaceOnUse" color-interpolation-filters="sRGB">
<feFlood flood-opacity="0" result="BackgroundImageFix"/>
<feBlend mode="normal" in="SourceGraphic" in2="BackgroundImageFix" result="shape"/>
<feColorMatrix in="SourceAlpha" type="matrix" values="0 0 0 0 0 0 0 0 0 0 0 0 0 0 0 0 0 0 127 0" result="hardAlpha"/>
<feOffset dy="-1"/>
<feComposite in2="hardAlpha" operator="arithmetic" k2="-1" k3="1"/>
<feColorMatrix type="matrix" values="0 0 0 0 0.9118 0 0 0 0 0.91885 0 0 0 0 0.94 0 0 0 1 0"/>
<feBlend mode="normal" in2="shape" result="effect1_innerShadow_2118_61474"/>
</filter>
<clipPath id="clip0_2118_61474">
<rect width="1920" height="6000" fill="white" transform="translate(-31 -85)"/>
</clipPath>
</defs>
</svg>
