<svg width="1074" height="828" viewBox="0 0 1074 828" fill="none" xmlns="http://www.w3.org/2000/svg">
<path d="M864 394.285C864 540.555 745.135 659.136 598.505 659.136C451.877 659.136 333.007 540.555 333.007 394.285C333.007 248.011 451.877 129.43 598.505 129.43C745.135 129.43 864 248.011 864 394.285" fill="#FFECB3"/>
<path fill-rule="evenodd" clip-rule="evenodd" d="M317 485V321L848.583 321H850V485H848.583L317 485ZM318.417 483.588L848.583 483.588V322.41L318.417 322.41V483.588Z" fill="#F5EBEB"/>
<path d="M848.583 483.588H851.249V486.255H848.583V483.588ZM318.417 483.588V486.255H315.751V483.588H318.417ZM318.417 322.41H315.751V319.744H318.417V322.41ZM848.583 322.41V319.744H851.249V322.41H848.583ZM317 321H314.333V318.333H317V321ZM317 485V487.667H314.333V485H317ZM848.583 485V487.667V485ZM850 485H852.667V487.667H850V485ZM850 321V318.333H852.667V321H850ZM848.583 321V323.667V321ZM848.583 486.255L318.417 486.255V480.921L848.583 480.921V486.255ZM315.751 483.588V322.41H321.084V483.588H315.751ZM318.417 319.744L848.583 319.744V325.077L318.417 325.077V319.744ZM851.249 322.41V483.588H845.916V322.41H851.249ZM319.667 321V485H314.333V321H319.667ZM317 482.333L848.583 482.333V487.667L317 487.667V482.333ZM848.583 482.333H850V487.667H848.583V482.333ZM847.333 485V321H852.667V485H847.333ZM850 323.667H848.583V318.333H850V323.667ZM848.583 323.667L317 323.667V318.333L848.583 318.333V323.667Z" fill="#4E4C4F"/>
<path fill-rule="evenodd" clip-rule="evenodd" d="M867.238 582.926L298.311 582.926L298.311 284.228L867.238 284.228V582.926ZM633.551 547.64V560.385V571.716H578.711H575.88L521.04 571.716V560.385V547.64V497.366L633.551 497.366V547.64ZM850.415 486.863H847.585L315.319 486.863L315.319 319.531L847.585 319.531H850.415V486.863Z" fill="#E6E6E6"/>
<path d="M850.415 486.863H853.082V489.529H850.415V486.863ZM847.585 486.863V489.529V486.863ZM315.319 486.863V489.529H312.652V486.863H315.319ZM315.319 319.531H312.652V316.864H315.319L315.319 319.531ZM847.585 319.531V322.197V319.531ZM850.415 319.531V316.864H853.082V319.531H850.415ZM633.551 571.716H636.218V574.383H633.551V571.716ZM575.88 571.716V574.383V571.716ZM521.04 571.716V574.383L518.374 574.383V571.716H521.04ZM521.04 497.366H518.374V494.699L521.04 494.699V497.366ZM633.551 497.366V494.699L636.218 494.699V497.366H633.551ZM298.311 582.926V585.593H295.644V582.926H298.311ZM867.238 582.926H869.905V585.593H867.238V582.926ZM867.238 284.228V281.561H869.905V284.228H867.238ZM298.311 284.228H295.644V281.561H298.311V284.228ZM850.415 489.529H847.585V484.196H850.415V489.529ZM847.585 489.529L315.319 489.529V484.196L847.585 484.196V489.529ZM312.652 486.863L312.652 319.531H317.985L317.985 486.863H312.652ZM315.319 316.864L847.585 316.864V322.197L315.319 322.197L315.319 316.864ZM847.585 316.864H850.415V322.197H847.585V316.864ZM853.082 319.531V486.863H847.749V319.531H853.082ZM636.218 547.64V560.385H630.885V547.64H636.218ZM636.218 560.385V571.716H630.885V560.385H636.218ZM633.551 574.383H578.711V569.049H633.551V574.383ZM578.711 574.383H575.88V569.049H578.711V574.383ZM575.88 574.383L521.04 574.383V569.049L575.88 569.049V574.383ZM518.374 571.716V560.385H523.707V571.716H518.374ZM518.374 560.385V547.64H523.707V560.385H518.374ZM518.374 547.64V497.366H523.707V547.64H518.374ZM521.04 494.699L633.551 494.699V500.032L521.04 500.032V494.699ZM636.218 497.366V547.64H630.885V497.366H636.218ZM298.311 580.26L867.238 580.26V585.593L298.311 585.593V580.26ZM864.572 582.926V284.228H869.905V582.926H864.572ZM867.238 286.894L298.311 286.894V281.561L867.238 281.561V286.894ZM300.977 284.228L300.977 582.926H295.644L295.644 284.228H300.977Z" fill="#4E4C4F"/>
<path fill-rule="evenodd" clip-rule="evenodd" d="M848 484L318 484V322L848 322V484ZM355.821 442.925H328.717V470.071H355.821V442.925ZM355.821 406.993H328.717V434.142H355.821V406.993ZM328.717 371.863H355.821V399.009H328.717V371.863ZM355.821 335.131H328.717V362.28H355.821V335.131ZM366.98 442.925H394.081V470.071H366.98V442.925ZM394.081 406.993H366.98V434.142H394.081V406.993ZM366.98 371.863H394.081V399.009H366.98V371.863ZM394.081 335.131H366.98V362.28H394.081V335.131ZM403.649 442.925L614.091 442.925V470.071L403.649 470.071V442.925ZM430.749 406.993H403.649V434.142H430.749V406.993ZM403.649 371.863H430.749V399.009H403.649V371.863ZM430.749 335.131H403.649V362.28H430.749V335.131ZM440.317 406.993H467.418V434.142H440.317V406.993ZM467.418 371.863H440.317V399.009H467.418V371.863ZM440.317 335.131H467.418V362.28H440.317V335.131ZM504.088 406.993H476.984V434.142H504.088V406.993ZM476.984 371.863H504.088V399.009H476.984V371.863ZM504.088 335.131H476.984V362.28H504.088V335.131ZM513.652 406.993H540.753V434.142H513.652V406.993ZM540.753 371.863H513.652V399.009H540.753V371.863ZM513.652 335.131H540.753V362.28H513.652V335.131ZM577.423 406.993L550.322 406.993V434.142L577.423 434.142V406.993ZM550.322 371.863L577.423 371.863V399.009L550.322 399.009V371.863ZM577.423 335.131L550.322 335.131V362.28L577.423 362.28V335.131ZM586.989 406.993L614.093 406.993V434.142H586.989V406.993ZM614.093 371.863L586.989 371.863V399.009L614.093 399.009V371.863ZM586.989 335.131H614.093V362.28L586.989 362.28V335.131ZM650.756 442.925H623.66V470.071H650.756V442.925ZM623.66 406.993H650.756V434.142H623.66V406.993ZM650.756 371.863H623.66V399.009H650.756V371.863ZM623.66 335.131H650.756V362.28H623.66V335.131ZM687.426 442.925H660.325V470.071H687.426V442.925ZM660.325 406.993H687.426V434.142H660.325V406.993ZM687.426 371.863H660.325V399.009H687.426V371.863ZM660.325 335.131L687.426 335.131V362.28H660.325V335.131ZM724.094 442.925H696.997V470.071H724.094V442.925ZM696.997 406.993H724.094V434.142H696.997V406.993ZM724.094 371.863H696.997V399.009H724.094V371.863ZM696.997 335.131H724.094V362.28H696.997V335.131ZM760.764 406.993H733.667V434.142H760.764V406.993ZM733.667 371.863H760.764V399.009H733.667V371.863ZM760.764 335.131H733.667V362.28H760.764V335.131ZM770.334 406.993H797.434V434.142H770.334V406.993ZM797.434 371.863H770.334V399.009H797.434V371.863ZM770.334 335.131H797.434V362.28H770.334V335.131ZM733.669 470.071H797.44V442.925H733.669V470.071ZM807.006 406.993H834.104V434.142H807.006V406.993ZM834.104 371.863H807.006V399.009H834.104V371.863ZM807.006 335.131H834.104V362.28H807.006V335.131Z" fill="#E0D8D3"/>
<path d="M318 484V486.667H315.333V484H318ZM848 484H850.667V486.667H848V484ZM318 322H315.333V319.333H318V322ZM848 322V319.333H850.667V322H848ZM328.717 442.925H326.05V440.259H328.717V442.925ZM355.821 442.925V440.259H358.487V442.925H355.821ZM328.717 470.071V472.738H326.05V470.071H328.717ZM355.821 470.071H358.487V472.738H355.821V470.071ZM328.717 406.993H326.05V404.326H328.717V406.993ZM355.821 406.993V404.326H358.487V406.993H355.821ZM328.717 434.142V436.808H326.05V434.142H328.717ZM355.821 434.142H358.487V436.808H355.821V434.142ZM355.821 371.863V369.197H358.487V371.863H355.821ZM328.717 371.863H326.05V369.197H328.717V371.863ZM355.821 399.009H358.487V401.676H355.821V399.009ZM328.717 399.009V401.676H326.05V399.009H328.717ZM328.717 335.131H326.05V332.464H328.717V335.131ZM355.821 335.131V332.464H358.487V335.131H355.821ZM328.717 362.28V364.946H326.05V362.28H328.717ZM355.821 362.28H358.487V364.946H355.821V362.28ZM394.081 442.925V440.259H396.748V442.925H394.081ZM366.98 442.925H364.314V440.259H366.98V442.925ZM394.081 470.071H396.748V472.738H394.081V470.071ZM366.98 470.071V472.738H364.314V470.071H366.98ZM366.98 406.993H364.314V404.326H366.98V406.993ZM394.081 406.993V404.326H396.748V406.993H394.081ZM366.98 434.142V436.808H364.314V434.142H366.98ZM394.081 434.142H396.748V436.808H394.081V434.142ZM394.081 371.863V369.197H396.748V371.863H394.081ZM366.98 371.863H364.314V369.197H366.98V371.863ZM394.081 399.009H396.748V401.676H394.081V399.009ZM366.98 399.009V401.676H364.314V399.009H366.98ZM366.98 335.131H364.314V332.464H366.98V335.131ZM394.081 335.131V332.464H396.748V335.131H394.081ZM366.98 362.28V364.946H364.314V362.28H366.98ZM394.081 362.28H396.748V364.946H394.081V362.28ZM614.091 442.925V440.259L616.758 440.259V442.925H614.091ZM403.649 442.925H400.982V440.259H403.649V442.925ZM614.091 470.071H616.758V472.738L614.091 472.738V470.071ZM403.649 470.071V472.738H400.982V470.071H403.649ZM403.649 406.993H400.982V404.326H403.649V406.993ZM430.749 406.993V404.326H433.416V406.993H430.749ZM403.649 434.142V436.808H400.982V434.142H403.649ZM430.749 434.142H433.416V436.808H430.749V434.142ZM430.749 371.863V369.197H433.416V371.863H430.749ZM403.649 371.863H400.982V369.197H403.649V371.863ZM430.749 399.009H433.416V401.676H430.749V399.009ZM403.649 399.009V401.676H400.982V399.009H403.649ZM403.649 335.131H400.982V332.464H403.649V335.131ZM430.749 335.131V332.464H433.416V335.131H430.749ZM403.649 362.28V364.946H400.982V362.28H403.649ZM430.749 362.28H433.416V364.946H430.749V362.28ZM467.418 406.993V404.326H470.084V406.993H467.418ZM440.317 406.993H437.65V404.326H440.317V406.993ZM467.418 434.142H470.084V436.808H467.418V434.142ZM440.317 434.142V436.808H437.65V434.142H440.317ZM440.317 371.863H437.65V369.197H440.317V371.863ZM467.418 371.863V369.197H470.084V371.863H467.418ZM440.317 399.009V401.676H437.65V399.009H440.317ZM467.418 399.009H470.084V401.676H467.418V399.009ZM467.418 335.131V332.464H470.084V335.131H467.418ZM440.317 335.131H437.65V332.464H440.317V335.131ZM467.418 362.28H470.084V364.946H467.418V362.28ZM440.317 362.28V364.946H437.65V362.28H440.317ZM476.984 406.993H474.317V404.326H476.984V406.993ZM504.088 406.993V404.326H506.754V406.993H504.088ZM476.984 434.142V436.808H474.317V434.142H476.984ZM504.088 434.142H506.754V436.808H504.088V434.142ZM504.088 371.863V369.197H506.754V371.863H504.088ZM476.984 371.863H474.317V369.197H476.984V371.863ZM504.088 399.009H506.754V401.676H504.088V399.009ZM476.984 399.009V401.676H474.317V399.009H476.984ZM476.984 335.131H474.317V332.464H476.984V335.131ZM504.088 335.131V332.464H506.754V335.131H504.088ZM476.984 362.28V364.946H474.317V362.28H476.984ZM504.088 362.28H506.754V364.946H504.088V362.28ZM540.753 406.993V404.326H543.419V406.993H540.753ZM513.652 406.993H510.985V404.326H513.652V406.993ZM540.753 434.142H543.419V436.808H540.753V434.142ZM513.652 434.142V436.808H510.985V434.142H513.652ZM513.652 371.863H510.985V369.197H513.652V371.863ZM540.753 371.863V369.197H543.419V371.863H540.753ZM513.652 399.009V401.676H510.985V399.009H513.652ZM540.753 399.009H543.419V401.676H540.753V399.009ZM540.753 335.131V332.464H543.419V335.131H540.753ZM513.652 335.131H510.985V332.464H513.652V335.131ZM540.753 362.28H543.419V364.946H540.753V362.28ZM513.652 362.28V364.946H510.985V362.28H513.652ZM550.322 406.993H547.655V404.326L550.322 404.326L550.322 406.993ZM577.423 406.993L577.423 404.326L580.089 404.326V406.993H577.423ZM550.322 434.142L550.322 436.808L547.655 436.808V434.142H550.322ZM577.423 434.142L580.089 434.142V436.808L577.423 436.808L577.423 434.142ZM577.423 371.863L577.423 369.197L580.089 369.197V371.863H577.423ZM550.322 371.863H547.655V369.197L550.322 369.197L550.322 371.863ZM577.423 399.009H580.089V401.676L577.423 401.676L577.423 399.009ZM550.322 399.009L550.322 401.676L547.655 401.676V399.009H550.322ZM550.322 335.131H547.655V332.464L550.322 332.464V335.131ZM577.423 335.131L577.423 332.464L580.089 332.464V335.131H577.423ZM550.322 362.28L550.322 364.946L547.655 364.946V362.28H550.322ZM577.423 362.28H580.089V364.946L577.423 364.946L577.423 362.28ZM614.093 406.993V404.326H616.759V406.993H614.093ZM586.989 406.993H584.322V404.326H586.989V406.993ZM614.093 434.142H616.759V436.808H614.093V434.142ZM586.989 434.142V436.808H584.322V434.142H586.989ZM586.989 371.863H584.322V369.197H586.989V371.863ZM614.093 371.863V369.197H616.759V371.863H614.093ZM586.989 399.009V401.676H584.322V399.009H586.989ZM614.093 399.009H616.759V401.676H614.093V399.009ZM614.093 335.131V332.464H616.759V335.131H614.093ZM586.989 335.131H584.322V332.464H586.989V335.131ZM614.093 362.28H616.759V364.946H614.093V362.28ZM586.989 362.28V364.946H584.322V362.28H586.989ZM623.66 442.925H620.994V440.259H623.66V442.925ZM650.756 442.925V440.259H653.423V442.925H650.756ZM623.66 470.071V472.738H620.994V470.071H623.66ZM650.756 470.071H653.423V472.738H650.756V470.071ZM650.756 406.993V404.326H653.423V406.993H650.756ZM623.66 406.993H620.994V404.326H623.66V406.993ZM650.756 434.142H653.423V436.808H650.756V434.142ZM623.66 434.142V436.808H620.994V434.142H623.66ZM623.66 371.863H620.994V369.197H623.66V371.863ZM650.756 371.863V369.197H653.423V371.863H650.756ZM623.66 399.009V401.676H620.994V399.009H623.66ZM650.756 399.009H653.423V401.676H650.756V399.009ZM650.756 335.131V332.464H653.423V335.131H650.756ZM623.66 335.131H620.994V332.464H623.66V335.131ZM650.756 362.28H653.423V364.946H650.756V362.28ZM623.66 362.28V364.946H620.994V362.28H623.66ZM660.325 442.925H657.659V440.259H660.325V442.925ZM687.426 442.925V440.259H690.093V442.925H687.426ZM660.325 470.071V472.738H657.659V470.071H660.325ZM687.426 470.071H690.093V472.738H687.426V470.071ZM687.426 406.993V404.326H690.093V406.993H687.426ZM660.325 406.993H657.659V404.326H660.325V406.993ZM687.426 434.142H690.093V436.808H687.426V434.142ZM660.325 434.142V436.808H657.659V434.142H660.325ZM660.325 371.863H657.659V369.197H660.325V371.863ZM687.426 371.863V369.197H690.093V371.863H687.426ZM660.325 399.009V401.676H657.659V399.009H660.325ZM687.426 399.009H690.093V401.676H687.426V399.009ZM687.426 335.131V332.464H690.093V335.131H687.426ZM660.325 335.131H657.659V332.464H660.325V335.131ZM687.426 362.28H690.093V364.946H687.426V362.28ZM660.325 362.28V364.946H657.659V362.28H660.325ZM696.997 442.925H694.33V440.259H696.997V442.925ZM724.094 442.925V440.259H726.761V442.925H724.094ZM696.997 470.071V472.738H694.33V470.071H696.997ZM724.094 470.071H726.761V472.738H724.094V470.071ZM724.094 406.993V404.326H726.761V406.993H724.094ZM696.997 406.993H694.33V404.326H696.997V406.993ZM724.094 434.142H726.761V436.808H724.094V434.142ZM696.997 434.142V436.808H694.33V434.142H696.997ZM696.997 371.863H694.33V369.197H696.997V371.863ZM724.094 371.863V369.197H726.761V371.863H724.094ZM696.997 399.009V401.676H694.33V399.009H696.997ZM724.094 399.009H726.761V401.676H724.094V399.009ZM724.094 335.131V332.464H726.761V335.131H724.094ZM696.997 335.131H694.33V332.464H696.997V335.131ZM724.094 362.28H726.761V364.946H724.094V362.28ZM696.997 362.28V364.946H694.33V362.28H696.997ZM733.667 406.993H731V404.326H733.667V406.993ZM760.764 406.993V404.326H763.431V406.993H760.764ZM733.667 434.142V436.808H731V434.142H733.667ZM760.764 434.142H763.431V436.808H760.764V434.142ZM760.764 371.863V369.197H763.431V371.863H760.764ZM733.667 371.863H731V369.197H733.667V371.863ZM760.764 399.009H763.431V401.676H760.764V399.009ZM733.667 399.009V401.676H731V399.009H733.667ZM733.667 335.131H731V332.464H733.667V335.131ZM760.764 335.131V332.464H763.431V335.131H760.764ZM733.667 362.28V364.946H731V362.28H733.667ZM760.764 362.28H763.431V364.946H760.764V362.28ZM797.434 406.993V404.326H800.101V406.993H797.434ZM770.334 406.993H767.667V404.326H770.334V406.993ZM797.434 434.142H800.101V436.808H797.434V434.142ZM770.334 434.142V436.808H767.667V434.142H770.334ZM770.334 371.863H767.667V369.197H770.334V371.863ZM797.434 371.863V369.197H800.101V371.863H797.434ZM770.334 399.009V401.676H767.667V399.009H770.334ZM797.434 399.009H800.101V401.676H797.434V399.009ZM797.434 335.131V332.464H800.101V335.131H797.434ZM770.334 335.131H767.667V332.464H770.334V335.131ZM797.434 362.28H800.101V364.946H797.434V362.28ZM770.334 362.28V364.946H767.667V362.28H770.334ZM797.44 470.071H800.106V472.738H797.44V470.071ZM733.669 470.071V472.738H731.002V470.071H733.669ZM797.44 442.925V440.259H800.106V442.925H797.44ZM733.669 442.925H731.002V440.259H733.669V442.925ZM834.104 406.993V404.326H836.771V406.993H834.104ZM807.006 406.993H804.339V404.326H807.006V406.993ZM834.104 434.142H836.771V436.808H834.104V434.142ZM807.006 434.142V436.808H804.339V434.142H807.006ZM807.006 371.863H804.339V369.197H807.006V371.863ZM834.104 371.863V369.197H836.771V371.863H834.104ZM807.006 399.009V401.676H804.339V399.009H807.006ZM834.104 399.009H836.771V401.676H834.104V399.009ZM834.104 335.131V332.464H836.771V335.131H834.104ZM807.006 335.131H804.339V332.464H807.006V335.131ZM834.104 362.28H836.771V364.946H834.104V362.28ZM807.006 362.28V364.946H804.339V362.28H807.006ZM318 481.333L848 481.333V486.667L318 486.667V481.333ZM320.667 322V484H315.333V322H320.667ZM848 324.667L318 324.667V319.333L848 319.333V324.667ZM845.333 484V322H850.667V484H845.333ZM328.717 440.259H355.821V445.592H328.717V440.259ZM326.05 470.071V442.925H331.383V470.071H326.05ZM355.821 472.738H328.717V467.404H355.821V472.738ZM358.487 442.925V470.071H353.154V442.925H358.487ZM328.717 404.326H355.821V409.659H328.717V404.326ZM326.05 434.142V406.993H331.383V434.142H326.05ZM355.821 436.808H328.717V431.475H355.821V436.808ZM358.487 406.993V434.142H353.154V406.993H358.487ZM355.821 374.53H328.717V369.197H355.821V374.53ZM353.154 399.009V371.863H358.487V399.009H353.154ZM328.717 396.342H355.821V401.676H328.717V396.342ZM331.383 371.863V399.009H326.05V371.863H331.383ZM328.717 332.464H355.821V337.797H328.717V332.464ZM326.05 362.28V335.131H331.383V362.28H326.05ZM355.821 364.946H328.717V359.613H355.821V364.946ZM358.487 335.131V362.28H353.154V335.131H358.487ZM394.081 445.592H366.98V440.259H394.081V445.592ZM391.414 470.071V442.925H396.748V470.071H391.414ZM366.98 467.404H394.081V472.738H366.98V467.404ZM369.647 442.925V470.071H364.314V442.925H369.647ZM366.98 404.326H394.081V409.659H366.98V404.326ZM364.314 434.142V406.993H369.647V434.142H364.314ZM394.081 436.808H366.98V431.475H394.081V436.808ZM396.748 406.993V434.142H391.414V406.993H396.748ZM394.081 374.53H366.98V369.197H394.081V374.53ZM391.414 399.009V371.863H396.748V399.009H391.414ZM366.98 396.342H394.081V401.676H366.98V396.342ZM369.647 371.863V399.009H364.314V371.863H369.647ZM366.98 332.464H394.081V337.797H366.98V332.464ZM364.314 362.28V335.131H369.647V362.28H364.314ZM394.081 364.946H366.98V359.613H394.081V364.946ZM396.748 335.131V362.28H391.414V335.131H396.748ZM614.091 445.592L403.649 445.592V440.259L614.091 440.259V445.592ZM611.424 470.071V442.925H616.758V470.071H611.424ZM403.649 467.404L614.091 467.404V472.738L403.649 472.738V467.404ZM406.315 442.925V470.071H400.982V442.925H406.315ZM403.649 404.326H430.749V409.659H403.649V404.326ZM400.982 434.142V406.993H406.315V434.142H400.982ZM430.749 436.808H403.649V431.475H430.749V436.808ZM433.416 406.993V434.142H428.083V406.993H433.416ZM430.749 374.53H403.649V369.197H430.749V374.53ZM428.083 399.009V371.863H433.416V399.009H428.083ZM403.649 396.342H430.749V401.676H403.649V396.342ZM406.315 371.863V399.009H400.982V371.863H406.315ZM403.649 332.464H430.749V337.797H403.649V332.464ZM400.982 362.28V335.131H406.315V362.28H400.982ZM430.749 364.946H403.649V359.613H430.749V364.946ZM433.416 335.131V362.28H428.083V335.131H433.416ZM467.418 409.659H440.317V404.326H467.418V409.659ZM464.751 434.142V406.993H470.084V434.142H464.751ZM440.317 431.475H467.418V436.808H440.317V431.475ZM442.984 406.993V434.142H437.65V406.993H442.984ZM440.317 369.197H467.418V374.53H440.317V369.197ZM437.65 399.009V371.863H442.984V399.009H437.65ZM467.418 401.676H440.317V396.342H467.418V401.676ZM470.084 371.863V399.009H464.751V371.863H470.084ZM467.418 337.797H440.317V332.464H467.418V337.797ZM464.751 362.28V335.131H470.084V362.28H464.751ZM440.317 359.613H467.418V364.946H440.317V359.613ZM442.984 335.131V362.28H437.65V335.131H442.984ZM476.984 404.326H504.088V409.659H476.984V404.326ZM474.317 434.142V406.993H479.65V434.142H474.317ZM504.088 436.808H476.984V431.475H504.088V436.808ZM506.754 406.993V434.142H501.421V406.993H506.754ZM504.088 374.53H476.984V369.197H504.088V374.53ZM501.421 399.009V371.863H506.754V399.009H501.421ZM476.984 396.342H504.088V401.676H476.984V396.342ZM479.65 371.863V399.009H474.317V371.863H479.65ZM476.984 332.464H504.088V337.797H476.984V332.464ZM474.317 362.28V335.131H479.65V362.28H474.317ZM504.088 364.946H476.984V359.613H504.088V364.946ZM506.754 335.131V362.28H501.421V335.131H506.754ZM540.753 409.659H513.652V404.326H540.753V409.659ZM538.086 434.142V406.993H543.419V434.142H538.086ZM513.652 431.475H540.753V436.808H513.652V431.475ZM516.319 406.993V434.142H510.985V406.993H516.319ZM513.652 369.197H540.753V374.53H513.652V369.197ZM510.985 399.009V371.863H516.319V399.009H510.985ZM540.753 401.676H513.652V396.342H540.753V401.676ZM543.419 371.863V399.009H538.086V371.863H543.419ZM540.753 337.797H513.652V332.464H540.753V337.797ZM538.086 362.28V335.131H543.419V362.28H538.086ZM513.652 359.613H540.753V364.946H513.652V359.613ZM516.319 335.131V362.28H510.985V335.131H516.319ZM550.322 404.326L577.423 404.326L577.423 409.659L550.322 409.659L550.322 404.326ZM547.655 434.142V406.993H552.989V434.142H547.655ZM577.423 436.808L550.322 436.808L550.322 431.475L577.423 431.475L577.423 436.808ZM580.089 406.993V434.142L574.756 434.142V406.993H580.089ZM577.423 374.53L550.322 374.53L550.322 369.197L577.423 369.197L577.423 374.53ZM574.756 399.009V371.863H580.089V399.009H574.756ZM550.322 396.342L577.423 396.342L577.423 401.676L550.322 401.676L550.322 396.342ZM552.989 371.863V399.009H547.655V371.863H552.989ZM550.322 332.464L577.423 332.464L577.423 337.797L550.322 337.797L550.322 332.464ZM547.655 362.28V335.131H552.989V362.28H547.655ZM577.423 364.946L550.322 364.946L550.322 359.613L577.423 359.613L577.423 364.946ZM580.089 335.131V362.28H574.756V335.131H580.089ZM614.093 409.659L586.989 409.659V404.326L614.093 404.326V409.659ZM611.426 434.142V406.993H616.759V434.142H611.426ZM586.989 431.475H614.093V436.808H586.989V431.475ZM589.655 406.993V434.142H584.322V406.993H589.655ZM586.989 369.197L614.093 369.197V374.53L586.989 374.53V369.197ZM584.322 399.009V371.863H589.655V399.009H584.322ZM614.093 401.676L586.989 401.676V396.342L614.093 396.342V401.676ZM616.759 371.863V399.009H611.426V371.863H616.759ZM614.093 337.797H586.989V332.464H614.093V337.797ZM611.426 362.28V335.131H616.759V362.28H611.426ZM586.989 359.613L614.093 359.613V364.946L586.989 364.946V359.613ZM589.655 335.131V362.28H584.322V335.131H589.655ZM623.66 440.259H650.756V445.592H623.66V440.259ZM620.994 470.071V442.925H626.327V470.071H620.994ZM650.756 472.738H623.66V467.404H650.756V472.738ZM653.423 442.925V470.071H648.089V442.925H653.423ZM650.756 409.659H623.66V404.326H650.756V409.659ZM648.089 434.142V406.993H653.423V434.142H648.089ZM623.66 431.475H650.756V436.808H623.66V431.475ZM626.327 406.993V434.142H620.994V406.993H626.327ZM623.66 369.197H650.756V374.53H623.66V369.197ZM620.994 399.009V371.863H626.327V399.009H620.994ZM650.756 401.676H623.66V396.342H650.756V401.676ZM653.423 371.863V399.009H648.089V371.863H653.423ZM650.756 337.797H623.66V332.464H650.756V337.797ZM648.089 362.28V335.131H653.423V362.28H648.089ZM623.66 359.613H650.756V364.946H623.66V359.613ZM626.327 335.131V362.28H620.994V335.131H626.327ZM660.325 440.259H687.426V445.592H660.325V440.259ZM657.659 470.071V442.925H662.992V470.071H657.659ZM687.426 472.738H660.325V467.404H687.426V472.738ZM690.093 442.925V470.071H684.759V442.925H690.093ZM687.426 409.659H660.325V404.326H687.426V409.659ZM684.759 434.142V406.993H690.093V434.142H684.759ZM660.325 431.475H687.426V436.808H660.325V431.475ZM662.992 406.993V434.142H657.659V406.993H662.992ZM660.325 369.197H687.426V374.53H660.325V369.197ZM657.659 399.009V371.863H662.992V399.009H657.659ZM687.426 401.676H660.325V396.342H687.426V401.676ZM690.093 371.863V399.009H684.759V371.863H690.093ZM687.426 337.797L660.325 337.797V332.464L687.426 332.464V337.797ZM684.759 362.28V335.131H690.093V362.28H684.759ZM660.325 359.613H687.426V364.946H660.325V359.613ZM662.992 335.131V362.28H657.659V335.131H662.992ZM696.997 440.259H724.094V445.592H696.997V440.259ZM694.33 470.071V442.925H699.664V470.071H694.33ZM724.094 472.738H696.997V467.404H724.094V472.738ZM726.761 442.925V470.071H721.428V442.925H726.761ZM724.094 409.659H696.997V404.326H724.094V409.659ZM721.428 434.142V406.993H726.761V434.142H721.428ZM696.997 431.475H724.094V436.808H696.997V431.475ZM699.664 406.993V434.142H694.33V406.993H699.664ZM696.997 369.197H724.094V374.53H696.997V369.197ZM694.33 399.009V371.863H699.664V399.009H694.33ZM724.094 401.676H696.997V396.342H724.094V401.676ZM726.761 371.863V399.009H721.428V371.863H726.761ZM724.094 337.797H696.997V332.464H724.094V337.797ZM721.428 362.28V335.131H726.761V362.28H721.428ZM696.997 359.613H724.094V364.946H696.997V359.613ZM699.664 335.131V362.28H694.33V335.131H699.664ZM733.667 404.326H760.764V409.659H733.667V404.326ZM731 434.142V406.993H736.334V434.142H731ZM760.764 436.808H733.667V431.475H760.764V436.808ZM763.431 406.993V434.142H758.098V406.993H763.431ZM760.764 374.53H733.667V369.197H760.764V374.53ZM758.098 399.009V371.863H763.431V399.009H758.098ZM733.667 396.342H760.764V401.676H733.667V396.342ZM736.334 371.863V399.009H731V371.863H736.334ZM733.667 332.464H760.764V337.797H733.667V332.464ZM731 362.28V335.131H736.334V362.28H731ZM760.764 364.946H733.667V359.613H760.764V364.946ZM763.431 335.131V362.28H758.098V335.131H763.431ZM797.434 409.659H770.334V404.326H797.434V409.659ZM794.768 434.142V406.993H800.101V434.142H794.768ZM770.334 431.475H797.434V436.808H770.334V431.475ZM773 406.993V434.142H767.667V406.993H773ZM770.334 369.197H797.434V374.53H770.334V369.197ZM767.667 399.009V371.863H773V399.009H767.667ZM797.434 401.676H770.334V396.342H797.434V401.676ZM800.101 371.863V399.009H794.768V371.863H800.101ZM797.434 337.797H770.334V332.464H797.434V337.797ZM794.768 362.28V335.131H800.101V362.28H794.768ZM770.334 359.613H797.434V364.946H770.334V359.613ZM773 335.131V362.28H767.667V335.131H773ZM797.44 472.738H733.669V467.404H797.44V472.738ZM800.106 442.925V470.071H794.773V442.925H800.106ZM733.669 440.259H797.44V445.592H733.669V440.259ZM731.002 470.071V442.925H736.336V470.071H731.002ZM834.104 409.659H807.006V404.326H834.104V409.659ZM831.438 434.142V406.993H836.771V434.142H831.438ZM807.006 431.475H834.104V436.808H807.006V431.475ZM809.672 406.993V434.142H804.339V406.993H809.672ZM807.006 369.197H834.104V374.53H807.006V369.197ZM804.339 399.009V371.863H809.672V399.009H804.339ZM834.104 401.676H807.006V396.342H834.104V401.676ZM836.771 371.863V399.009H831.438V371.863H836.771ZM834.104 337.797H807.006V332.464H834.104V337.797ZM831.438 362.28V335.131H836.771V362.28H831.438ZM807.006 359.613H834.104V364.946H807.006V359.613ZM809.672 335.131V362.28H804.339V335.131H809.672Z" fill="#4E4C4F"/>
<path d="M356 336H329V363H356V336Z" fill="#AD9E9E" stroke="#4E4C4F" stroke-width="5.33333"/>
<path d="M394 336H367V363H394V336Z" fill="#AD9E9E" stroke="#4E4C4F" stroke-width="5.33333"/>
<path d="M431 336H404V363H431V336Z" fill="#AD9E9E" stroke="#4E4C4F" stroke-width="5.33333"/>
<path d="M468 336H441V363H468V336Z" fill="#AD9E9E" stroke="#4E4C4F" stroke-width="5.33333"/>
<path d="M504 336H477V363H504V336Z" fill="#AD9E9E" stroke="#4E4C4F" stroke-width="5.33333"/>
<path d="M541 336H514V363H541V336Z" fill="#AD9E9E" stroke="#4E4C4F" stroke-width="5.33333"/>
<path d="M578 336H551V363H578V336Z" fill="#AD9E9E" stroke="#4E4C4F" stroke-width="5.33333"/>
<path d="M614 336H587V363H614V336Z" fill="#AD9E9E" stroke="#4E4C4F" stroke-width="5.33333"/>
<path d="M651 336H624V363H651V336Z" fill="#AD9E9E" stroke="#4E4C4F" stroke-width="5.33333"/>
<path d="M688 336H661V363H688V336Z" fill="#AD9E9E" stroke="#4E4C4F" stroke-width="5.33333"/>
<path d="M724 336H697V363H724V336Z" fill="#AD9E9E" stroke="#4E4C4F" stroke-width="5.33333"/>
<path d="M761 336H734V363H761V336Z" fill="#AD9E9E" stroke="#4E4C4F" stroke-width="5.33333"/>
<path d="M798 336H771V363H798V336Z" fill="#AD9E9E" stroke="#4E4C4F" stroke-width="5.33333"/>
<path d="M834 336H807V363H834V336Z" fill="#AD9E9E" stroke="#4E4C4F" stroke-width="5.33333"/>
<path d="M356 372H329V399H356V372Z" fill="#AD9E9E" stroke="#4E4C4F" stroke-width="5.33333"/>
<path d="M394 372H367V399H394V372Z" fill="#AD9E9E" stroke="#4E4C4F" stroke-width="5.33333"/>
<path d="M431 372H404V399H431V372Z" fill="#AD9E9E" stroke="#4E4C4F" stroke-width="5.33333"/>
<path d="M468 372H441V399H468V372Z" fill="#AD9E9E" stroke="#4E4C4F" stroke-width="5.33333"/>
<path d="M504 372H477V399H504V372Z" fill="#AD9E9E" stroke="#4E4C4F" stroke-width="5.33333"/>
<path d="M541 372H514V399H541V372Z" fill="#AD9E9E" stroke="#4E4C4F" stroke-width="5.33333"/>
<path d="M578 372H551V399H578V372Z" fill="#AD9E9E" stroke="#4E4C4F" stroke-width="5.33333"/>
<path d="M614 372H587V399H614V372Z" fill="#AD9E9E" stroke="#4E4C4F" stroke-width="5.33333"/>
<path d="M651 372H624V399H651V372Z" fill="#AD9E9E" stroke="#4E4C4F" stroke-width="5.33333"/>
<path d="M688 372H661V399H688V372Z" fill="#AD9E9E" stroke="#4E4C4F" stroke-width="5.33333"/>
<path d="M724 372H697V399H724V372Z" fill="#AD9E9E" stroke="#4E4C4F" stroke-width="5.33333"/>
<path d="M761 372H734V399H761V372Z" fill="#AD9E9E" stroke="#4E4C4F" stroke-width="5.33333"/>
<path d="M798 372H771V399H798V372Z" fill="#AD9E9E" stroke="#4E4C4F" stroke-width="5.33333"/>
<path d="M834 372H807V399H834V372Z" fill="#AD9E9E" stroke="#4E4C4F" stroke-width="5.33333"/>
<path d="M356 407H329V434H356V407Z" fill="#AD9E9E" stroke="#4E4C4F" stroke-width="5.33333"/>
<path d="M394 407H367V434H394V407Z" fill="#AD9E9E" stroke="#4E4C4F" stroke-width="5.33333"/>
<path d="M431 407H404V434H431V407Z" fill="#AD9E9E" stroke="#4E4C4F" stroke-width="5.33333"/>
<path d="M468 407H441V434H468V407Z" fill="#AD9E9E" stroke="#4E4C4F" stroke-width="5.33333"/>
<path d="M504 407H477V434H504V407Z" fill="#AD9E9E" stroke="#4E4C4F" stroke-width="5.33333"/>
<path d="M541 407H514V434H541V407Z" fill="#AD9E9E" stroke="#4E4C4F" stroke-width="5.33333"/>
<path d="M578 407H551V434H578V407Z" fill="#AD9E9E" stroke="#4E4C4F" stroke-width="5.33333"/>
<path d="M614 407H587V434H614V407Z" fill="#AD9E9E" stroke="#4E4C4F" stroke-width="5.33333"/>
<path d="M651 407H624V434H651V407Z" fill="#AD9E9E" stroke="#4E4C4F" stroke-width="5.33333"/>
<path d="M688 407H661V434H688V407Z" fill="#AD9E9E" stroke="#4E4C4F" stroke-width="5.33333"/>
<path d="M724 407H697V434H724V407Z" fill="#AD9E9E" stroke="#4E4C4F" stroke-width="5.33333"/>
<path d="M761 407H734V434H761V407Z" fill="#AD9E9E" stroke="#4E4C4F" stroke-width="5.33333"/>
<path d="M798 407H771V434H798V407Z" fill="#AD9E9E" stroke="#4E4C4F" stroke-width="5.33333"/>
<path d="M834 407H807V434H834V407Z" fill="#AD9E9E" stroke="#4E4C4F" stroke-width="5.33333"/>
<path d="M356 443H329V470H356V443Z" fill="#AD9E9E" stroke="#4E4C4F" stroke-width="5.33333"/>
<path d="M394 443H367V470H394V443Z" fill="#AD9E9E" stroke="#4E4C4F" stroke-width="5.33333"/>
<path d="M614 443H404V470H614V443Z" fill="#AD9E9E" stroke="#4E4C4F" stroke-width="5.33333"/>
<path d="M651 443H624V470H651V443Z" fill="#AD9E9E" stroke="#4E4C4F" stroke-width="5.33333"/>
<path d="M688 443H661V470H688V443Z" fill="#AD9E9E" stroke="#4E4C4F" stroke-width="5.33333"/>
<path d="M724 443H697V470H724V443Z" fill="#AD9E9E" stroke="#4E4C4F" stroke-width="5.33333"/>
<path d="M734 470H798V443H734V470Z" fill="#AD9E9E" stroke="#4E4C4F" stroke-width="5.33333"/>
<path d="M576.143 548H578.972H630.942V500.626H524.173V548H576.143Z" fill="#E0D8D3"/>
<path fill-rule="evenodd" clip-rule="evenodd" d="M576.143 548H578.972H630.942V500.626H524.173V548H576.143Z" stroke="#4E4C4F" stroke-width="5.33333"/>
<path fill-rule="evenodd" clip-rule="evenodd" d="M521.6 560.423V547.718V497.608L633.886 497.608V547.718V560.423V571.715H579.154H576.329L521.6 571.715V560.423ZM524.425 550.542V557.6V568.893L576.329 568.893V550.542L524.425 550.542ZM579.154 550.542V568.893H631.061V557.6V550.542H579.154ZM631.061 500.432V547.718H579.154H576.329L524.425 547.718V500.432L631.061 500.432Z" fill="#AD9E9E"/>
<path d="M524.425 550.542H521.758V547.875H524.425V550.542ZM576.329 550.542V547.875H578.996V550.542H576.329ZM576.329 568.893H578.996V571.56H576.329V568.893ZM524.425 568.893V571.56H521.758V568.893H524.425ZM579.154 568.893V571.56H576.488V568.893H579.154ZM579.154 550.542H576.488V547.875H579.154V550.542ZM631.061 550.542V547.875H633.727V550.542H631.061ZM631.061 568.893H633.727V571.56H631.061V568.893ZM631.061 500.432V497.765H633.727V500.432H631.061ZM631.061 547.718H633.727V550.385H631.061V547.718ZM576.329 547.718V550.385V547.718ZM524.425 547.718V550.385H521.758V547.718H524.425ZM524.425 500.432H521.758V497.765H524.425V500.432ZM521.6 571.715V574.382H518.933V571.715H521.6ZM576.329 571.715V574.382V571.715ZM633.886 571.715H636.552V574.382H633.886V571.715ZM633.886 497.608V494.942H636.552V497.608H633.886ZM521.6 497.608H518.933V494.942H521.6V497.608ZM521.758 557.6V550.542H527.091V557.6H521.758ZM524.425 547.875L576.329 547.875V553.208L524.425 553.208V547.875ZM578.996 550.542V568.893H573.663V550.542H578.996ZM576.329 571.56L524.425 571.56V566.227L576.329 566.227V571.56ZM521.758 568.893V557.6H527.091V568.893H521.758ZM576.488 568.893V550.542H581.821V568.893H576.488ZM579.154 547.875H631.061V553.208H579.154V547.875ZM633.727 550.542V557.6H628.394V550.542H633.727ZM633.727 557.6V568.893H628.394V557.6H633.727ZM631.061 571.56H579.154V566.227H631.061V571.56ZM633.727 500.432V547.718H628.394V500.432H633.727ZM631.061 550.385H579.154V545.052H631.061V550.385ZM579.154 550.385H576.329V545.052H579.154V550.385ZM576.329 550.385L524.425 550.385V545.052L576.329 545.052V550.385ZM521.758 547.718V500.432H527.091V547.718H521.758ZM524.425 497.765L631.061 497.765V503.098L524.425 503.098V497.765ZM524.266 547.718V560.423H518.933V547.718H524.266ZM524.266 560.423V571.715H518.933V560.423H524.266ZM521.6 569.048L576.329 569.048V574.382L521.6 574.382V569.048ZM576.329 569.048H579.154V574.382H576.329V569.048ZM579.154 569.048H633.886V574.382H579.154V569.048ZM631.219 571.715V560.423H636.552V571.715H631.219ZM631.219 560.423V547.718H636.552V560.423H631.219ZM631.219 547.718V497.608H636.552V547.718H631.219ZM633.886 500.275L521.6 500.275V494.942L633.886 494.942V500.275ZM524.266 497.608V547.718H518.933V497.608H524.266Z" fill="#4E4C4F"/>
<path d="M576.001 551H524.17V558.125V569.523H576.001V551Z" fill="#E0D8D3"/>
<path fill-rule="evenodd" clip-rule="evenodd" d="M576.001 551H524.17V558.125V569.523H576.001V551Z" stroke="#4E4C4F" stroke-width="5.33333"/>
<path d="M631.001 557.75V550.531H579.17V569.3H631.001V557.75Z" fill="#E0D8D3"/>
<path fill-rule="evenodd" clip-rule="evenodd" d="M631.001 557.75V550.531H579.17V569.3H631.001V557.75Z" stroke="#4E4C4F" stroke-width="5.33333"/>
<path fill-rule="evenodd" clip-rule="evenodd" d="M315.578 487.395V320.3L847.869 320.3H850.699V487.395H847.869L315.578 487.395ZM849.284 485.981V321.714H847.869L316.994 321.714V485.981L847.869 485.981H849.284Z" fill="#B3B3B3"/>
<path d="M849.582 321.413V318.747H852.249V321.413H849.582ZM849.582 485.587H852.249V488.253H849.582V485.587ZM848.165 485.587V488.253V485.587ZM316.418 485.587V488.253H313.751V485.587H316.418ZM316.418 321.413H313.751V318.747H316.418V321.413ZM848.165 321.413V324.08V321.413ZM315 320H312.333V317.333H315V320ZM315 487V489.667H312.333V487H315ZM848.165 487V489.667V487ZM851 487H853.667V489.667H851V487ZM851 320V317.333H853.667V320H851ZM848.165 320V322.667V320ZM852.249 321.413V485.587H846.916V321.413H852.249ZM849.582 488.253H848.165V482.92H849.582V488.253ZM848.165 488.253L316.418 488.253V482.92L848.165 482.92V488.253ZM313.751 485.587V321.413H319.084V485.587H313.751ZM316.418 318.747L848.165 318.747V324.08L316.418 324.08V318.747ZM848.165 318.747H849.582V324.08H848.165V318.747ZM317.667 320V487H312.333V320H317.667ZM315 484.333L848.165 484.333V489.667L315 489.667V484.333ZM848.165 484.333H851V489.667H848.165V484.333ZM848.333 487V320H853.667V487H848.333ZM851 322.667H848.165V317.333H851V322.667ZM848.165 322.667L315 322.667V317.333L848.165 317.333V322.667Z" fill="#4E4C4F"/>
<mask id="mask0_204_1177" style="mask-type:luminance" maskUnits="userSpaceOnUse" x="312" y="289" width="102" height="27">
<path fill-rule="evenodd" clip-rule="evenodd" d="M312.06 289.581H413.782V315.533H312.06V289.581Z" fill="white"/>
</mask>
<g mask="url(#mask0_204_1177)">
<path d="M410.349 312.158H315.493V292.957H410.349V312.158Z" fill="#E6E6E6" stroke="#4E4C4F" stroke-width="5.33333"/>
</g>
<mask id="mask1_204_1177" style="mask-type:luminance" maskUnits="userSpaceOnUse" x="752" y="289" width="103" height="27">
<path fill-rule="evenodd" clip-rule="evenodd" d="M752.458 289.581H854.179V315.533H752.458V289.581Z" fill="white"/>
</mask>
<g mask="url(#mask1_204_1177)">
<path d="M850.746 312.158H755.892V292.957H850.746V312.158Z" fill="#E6E6E6" stroke="#4E4C4F" stroke-width="5.33333"/>
</g>
<path d="M861.238 244.432L303.997 244.432C285.225 244.432 270.011 259.753 270.011 278.651L895.224 278.651C895.224 259.753 880.009 244.432 861.238 244.432" fill="#E6E6E6"/>
<path fill-rule="evenodd" clip-rule="evenodd" d="M861.238 244.432L303.997 244.432C285.225 244.432 270.011 259.753 270.011 278.651L895.224 278.651C895.224 259.753 880.009 244.432 861.238 244.432Z" stroke="#4E4C4F" stroke-width="5.33333"/>
<path d="M896 285L271 285V278L896 278V285Z" fill="#E0D8D3" stroke="#4E4C4F" stroke-width="5.33333"/>
<path d="M1028 631.6C1028 650.406 1012.69 665.654 993.804 665.654H986.679C967.793 665.654 952.48 650.406 952.48 631.6V571.98C952.48 553.173 967.793 537.925 986.679 537.925H993.804C1012.69 537.925 1028 553.173 1028 571.98V631.6Z" fill="#E0D8D3"/>
<path fill-rule="evenodd" clip-rule="evenodd" d="M1028 631.6C1028 650.406 1012.69 665.654 993.804 665.654H986.679C967.793 665.654 952.48 650.406 952.48 631.6V571.98C952.48 553.173 967.793 537.925 986.679 537.925H993.804C1012.69 537.925 1028 553.173 1028 571.98V631.6Z" stroke="#4E4C4F" stroke-width="5.33333"/>
<path d="M775 627H651V508H775V627Z" fill="#4E4C4F"/>
<path d="M730.5 400C723.404 400 717.646 405.816 717.646 412.987V511.423H743.359V412.987C743.359 405.816 737.605 400 730.5 400" fill="#4E4C4F"/>
<path d="M697.5 390C690.404 390 684.646 395.85 684.646 403.065V513.549L710.354 510.525V403.065C710.354 395.85 704.603 390 697.5 390" fill="#4E4C4F"/>
<path d="M664.5 416C657.542 416 651.893 421.721 651.893 428.772V529.627H677.114V428.772C677.114 421.721 671.466 416 664.5 416" fill="#4E4C4F"/>
<path d="M763.5 426C756.833 426 751.423 431.492 751.423 438.257V509.748L775.574 511.398V438.257C775.574 431.492 770.169 426 763.5 426" fill="#4E4C4F"/>
<path d="M652 628V550.607L637.437 532.546L637.423 532.555C634.32 529.422 629.997 527.466 625.204 527.466C615.765 527.466 608.109 535.003 608.109 544.3C608.109 547.007 608.821 549.526 609.97 551.791L609.927 551.824L610.738 553.18C610.865 553.387 610.976 553.613 611.114 553.815L652 628Z" fill="#4E4C4F"/>
<path d="M775 626C775 635.268 767.399 642.782 758.015 642.782H668.296C658.918 642.782 651.312 635.268 651.312 626C651.312 616.731 658.918 609.219 668.296 609.219H758.015C767.399 609.219 775 616.731 775 626" fill="#4E4C4F"/>
<path d="M752 748H674V624H752V748Z" fill="#4E4C4F"/>
<path d="M773 623H654V508H773V623Z" fill="#EDB996"/>
<path d="M730.5 404C723.671 404 718.129 409.63 718.129 416.569V511.841H742.876V416.569C742.876 409.63 737.338 404 730.5 404" fill="#EDB996"/>
<path d="M698.5 394C691.671 394 686.129 399.63 686.129 406.571V512.875L710.871 509.965V406.571C710.871 399.63 705.336 394 698.5 394" fill="#EDB996"/>
<path d="M666.5 420C659.804 420 654.365 425.538 654.365 432.361V529.984H678.64V432.361C678.64 425.538 673.204 420 666.5 420" fill="#EDB996"/>
<path d="M762 430C755.483 430 750.192 435.272 750.192 441.767V510.406L773.805 511.988V441.767C773.805 435.272 768.522 430 762 430" fill="#EDB996"/>
<path d="M654 625V549.863L640.071 532.33L640.057 532.338C637.089 529.297 632.954 527.399 628.372 527.399C619.342 527.399 612.02 534.716 612.02 543.743C612.02 546.37 612.699 548.816 613.8 551.013L613.758 551.046L614.534 552.361C614.656 552.564 614.761 552.783 614.894 552.979L654 625Z" fill="#DDA885"/>
<path d="M773 623C773 631.959 765.675 639.221 756.635 639.221H670.184C661.148 639.221 653.819 631.959 653.819 623C653.819 614.041 661.148 606.778 670.184 606.778H756.635C765.675 606.778 773 614.041 773 623" fill="#EDB996"/>
<path d="M751 741H676V621H751V741Z" fill="#EDB996"/>
<path d="M988 580H959.503V571.869C959.503 557.053 971.497 544.999 986.241 544.999H988V580Z" fill="#C6C0BD"/>
<path d="M1021 580H991.521V544.999H994.006C1008.89 544.999 1021 557.053 1021 571.869V580Z" fill="#C6C0BD"/>
<path d="M857 309V355.017C857 368.356 874.006 368.767 874.006 368.767H911.153C923.849 368.767 923.608 381.213 923.608 381.213V442.807V403.657V449.676C923.608 463.013 940.614 463.426 940.614 463.426H977.761C990.457 463.426 990.217 475.87 990.217 475.87V537.464" stroke="#ADC3C7" stroke-width="2.66667"/>
<path d="M320 631H444V512H320V631Z" fill="#4E4C4F"/>
<path d="M364.5 405C371.596 405 377.354 410.816 377.354 417.987V516.423H351.642V417.987C351.642 410.816 357.396 405 364.5 405" fill="#4E4C4F"/>
<path d="M397.5 394C404.596 394 410.354 399.85 410.354 407.065V517.549L384.646 514.525V407.065C384.646 399.85 390.397 394 397.5 394" fill="#4E4C4F"/>
<path d="M430.5 421C437.457 421 443.107 426.721 443.107 433.772V534.627H417.886V433.772C417.886 426.721 423.534 421 430.5 421" fill="#4E4C4F"/>
<path d="M331.5 431C338.167 431 343.577 436.492 343.577 443.257V514.748L319.426 516.398V443.257C319.426 436.492 324.831 431 331.5 431" fill="#4E4C4F"/>
<path d="M443 632V554.607L457.563 536.546L457.577 536.555C460.68 533.422 465.003 531.466 469.796 531.466C479.235 531.466 486.891 539.003 486.891 548.3C486.891 551.007 486.179 553.526 485.03 555.791L485.073 555.824L484.262 557.18C484.135 557.387 484.024 557.613 483.886 557.815L443 632Z" fill="#4E4C4F"/>
<path d="M320 631C320 640.268 327.603 647.782 336.985 647.782H426.704C436.082 647.782 443.688 640.268 443.688 631C443.688 621.731 436.082 614.219 426.704 614.219H336.985C327.603 614.219 320 621.731 320 631" fill="#4E4C4F"/>
<path d="M343 753H421V629H343V753Z" fill="#4E4C4F"/>
<path d="M323 628H442V513H323V628Z" fill="#EDB996"/>
<path d="M366.5 409C373.329 409 378.871 414.63 378.871 421.569V516.841H354.124V421.569C354.124 414.63 359.662 409 366.5 409" fill="#EDB996"/>
<path d="M398.5 399C405.329 399 410.871 404.63 410.871 411.571V517.875L386.129 514.965V411.571C386.129 404.63 391.664 399 398.5 399" fill="#EDB996"/>
<path d="M430.5 424C437.196 424 442.635 429.538 442.635 436.361V533.984H418.36V436.361C418.36 429.538 423.796 424 430.5 424" fill="#EDB996"/>
<path d="M335 434C341.518 434 346.808 439.272 346.808 445.767V514.406L323.195 515.988V445.767C323.195 439.272 328.479 434 335 434" fill="#EDB996"/>
<path d="M443 629V553.863L456.929 536.33L456.942 536.338C459.911 533.297 464.046 531.399 468.63 531.399C477.658 531.399 484.98 538.716 484.98 547.743C484.98 550.37 484.301 552.816 483.2 555.013L483.241 555.046L482.465 556.361C482.343 556.564 482.238 556.783 482.106 556.979L443 629Z" fill="#DDA885"/>
<path d="M323 627C323 635.959 330.325 643.221 339.365 643.221H425.816C434.852 643.221 442.181 635.959 442.181 627C442.181 618.041 434.852 610.778 425.816 610.778H339.365C330.325 610.778 323 618.041 323 627" fill="#EDB996"/>
<path d="M345 745H420V625H345V745Z" fill="#EDB996"/>
<path d="M383 674H444V826H383L383 674Z" fill="#FD8E1F" stroke="#4E4C4F" stroke-width="2.66667"/>
<path d="M322 674H383V826H322V674Z" fill="#D47F00" stroke="#4E4C4F" stroke-width="2.66667"/>
<path d="M438 700C438 706.012 433.191 710.884 427.257 710.884C421.324 710.884 416.515 706.012 416.515 700C416.515 693.988 421.324 689.116 427.257 689.116C433.191 689.116 438 693.988 438 700" fill="#4E4C4F"/>
<path d="M715 674H654V826H715V674Z" fill="#FD8E1F" stroke="#4E4C4F" stroke-width="2.66667"/>
<path d="M776 674H715V826H776V674Z" fill="#D47F00" stroke="#4E4C4F" stroke-width="2.66667"/>
<path d="M660 700C660 706.012 664.81 710.884 670.743 710.884C676.676 710.884 681.486 706.012 681.486 700C681.486 693.988 676.676 689.116 670.743 689.116C664.81 689.116 660 693.988 660 700" fill="#4E4C4F"/>
<path d="M679 429H663.047V440.92H663.135C663.113 441.07 663.047 441.203 663.047 441.359C663.047 443.052 664.42 444.426 666.115 444.426H675.931C677.628 444.426 679 443.052 679 441.359C679 441.203 678.933 441.07 678.911 440.92H679V429Z" fill="#EFD6C5"/>
<path d="M711 404H695.047V415.92H695.135C695.113 416.07 695.047 416.203 695.047 416.359C695.047 418.052 696.42 419.426 698.115 419.426H707.931C709.628 419.426 711 418.052 711 416.359C711 416.203 710.933 416.07 710.913 415.92H711V404Z" fill="#EFD6C5"/>
<path d="M742 413H727.698V423.685H727.778C727.757 423.82 727.698 423.938 727.698 424.078C727.698 425.596 728.928 426.828 730.448 426.828H739.248C740.767 426.828 742 425.596 742 424.078C742 423.938 741.942 423.82 741.92 423.685H742V413Z" fill="#EFD6C5"/>
<path d="M773 440H759.23V450.801H759.307C759.289 450.937 759.23 451.056 759.23 451.198C759.23 452.733 760.414 453.977 761.877 453.977H770.352C771.815 453.977 773 452.733 773 451.198C773 451.056 772.942 450.937 772.922 450.801H773V440Z" fill="#EFD6C5"/>
<path d="M422 432H437.953V443.92H437.864C437.886 444.07 437.953 444.203 437.953 444.359C437.953 446.052 436.581 447.426 434.884 447.426H425.069C423.372 447.426 422 446.052 422 444.359C422 444.203 422.066 444.07 422.088 443.92H422V432Z" fill="#EFD6C5"/>
<path d="M358 417H373.953V428.92H373.864C373.886 429.07 373.953 429.203 373.953 429.359C373.953 431.052 372.579 432.426 370.884 432.426H361.069C359.372 432.426 358 431.052 358 429.359C358 429.203 358.066 429.07 358.087 428.92H358V417Z" fill="#EFD6C5"/>
<path d="M390 409H405.953V420.92H405.864C405.886 421.07 405.953 421.203 405.953 421.359C405.953 423.052 404.579 424.426 402.884 424.426H393.069C391.372 424.426 390 423.052 390 421.359C390 421.203 390.066 421.07 390.087 420.92H390V409Z" fill="#EFD6C5"/>
<path d="M327 443H342.953V454.92H342.864C342.886 455.07 342.953 455.203 342.953 455.359C342.953 457.052 341.579 458.426 339.884 458.426H330.069C328.372 458.426 327 457.052 327 455.359C327 455.203 327.066 455.07 327.087 454.92H327V443Z" fill="#EFD6C5"/>
<path fill-rule="evenodd" clip-rule="evenodd" d="M163 369H167V375H163V369Z" stroke="#D47F00" stroke-width="1.33333"/>
<path fill-rule="evenodd" clip-rule="evenodd" d="M153 369H157V375H153V369Z" stroke="#D47F00" stroke-width="1.33333"/>
<path fill-rule="evenodd" clip-rule="evenodd" d="M144 369H148V375H144V369Z" stroke="#D47F00" stroke-width="1.33333"/>
<path fill-rule="evenodd" clip-rule="evenodd" d="M134 369H138V375H134V369Z" stroke="#D47F00" stroke-width="1.33333"/>
<path fill-rule="evenodd" clip-rule="evenodd" d="M125 369H129V375H125V369Z" stroke="#D47F00" stroke-width="1.33333"/>
<path fill-rule="evenodd" clip-rule="evenodd" d="M115 369H119V375H115V369Z" stroke="#D47F00" stroke-width="1.33333"/>
<path fill-rule="evenodd" clip-rule="evenodd" d="M105 369H109V375H105V369Z" stroke="#D47F00" stroke-width="1.33333"/>
<path fill-rule="evenodd" clip-rule="evenodd" d="M96 369H100V375H96V369Z" stroke="#D47F00" stroke-width="1.33333"/>
<path fill-rule="evenodd" clip-rule="evenodd" d="M86 369H90V375H86V369Z" stroke="#D47F00" stroke-width="1.33333"/>
<path fill-rule="evenodd" clip-rule="evenodd" d="M77 369H81V375H77V369Z" stroke="#D47F00" stroke-width="1.33333"/>
<path fill-rule="evenodd" clip-rule="evenodd" d="M67 369H71V375H67V369Z" stroke="#D47F00" stroke-width="1.33333"/>
<path fill-rule="evenodd" clip-rule="evenodd" d="M58 369H62V375H58V369Z" stroke="#D47F00" stroke-width="1.33333"/>
<path fill-rule="evenodd" clip-rule="evenodd" d="M48 369H52V375H48V369Z" stroke="#D47F00" stroke-width="1.33333"/>
<path fill-rule="evenodd" clip-rule="evenodd" d="M249 253H253V259H249V253Z" stroke="#FD8E1F" stroke-width="1.33333"/>
<path fill-rule="evenodd" clip-rule="evenodd" d="M239 253H243V259H239V253Z" stroke="#FD8E1F" stroke-width="1.33333"/>
<path fill-rule="evenodd" clip-rule="evenodd" d="M230 253H234V259H230V253Z" stroke="#FD8E1F" stroke-width="1.33333"/>
<path fill-rule="evenodd" clip-rule="evenodd" d="M220 253H224V259H220V253Z" stroke="#FD8E1F" stroke-width="1.33333"/>
<path fill-rule="evenodd" clip-rule="evenodd" d="M211 253H215V259H211V253Z" stroke="#FD8E1F" stroke-width="1.33333"/>
<path fill-rule="evenodd" clip-rule="evenodd" d="M201 253H205V259H201V253Z" stroke="#FD8E1F" stroke-width="1.33333"/>
<path fill-rule="evenodd" clip-rule="evenodd" d="M191 253H195V259H191V253Z" stroke="#FD8E1F" stroke-width="1.33333"/>
<path fill-rule="evenodd" clip-rule="evenodd" d="M182 253H186V259H182V253Z" stroke="#FD8E1F" stroke-width="1.33333"/>
<path fill-rule="evenodd" clip-rule="evenodd" d="M172 253H176V259H172V253Z" stroke="#FD8E1F" stroke-width="1.33333"/>
<path fill-rule="evenodd" clip-rule="evenodd" d="M163 253H167V259H163V253Z" stroke="#FD8E1F" stroke-width="1.33333"/>
<path fill-rule="evenodd" clip-rule="evenodd" d="M153 253H157V259H153V253Z" stroke="#FD8E1F" stroke-width="1.33333"/>
<path fill-rule="evenodd" clip-rule="evenodd" d="M144 253H148V259H144V253Z" stroke="#FD8E1F" stroke-width="1.33333"/>
<path fill-rule="evenodd" clip-rule="evenodd" d="M134 253H138V259H134V253Z" stroke="#FD8E1F" stroke-width="1.33333"/>
<path d="M213.448 435.271L199.45 444.463C199.01 444.517 198.595 444.738 198.314 445.122C198.087 445.433 197.993 445.794 198.006 446.152C197.976 446.507 198.053 446.874 198.266 447.195C198.534 447.589 198.94 447.827 199.375 447.898L212.955 457.689C213.692 458.216 214.719 458.057 215.253 457.331C215.785 456.606 215.623 455.585 214.888 455.058L202.677 446.252L215.263 437.984C216.022 437.487 216.227 436.478 215.727 435.726C215.225 434.979 214.207 434.775 213.448 435.271" fill="#4E4C4F"/>
<path fill-rule="evenodd" clip-rule="evenodd" d="M213.448 435.271L199.45 444.463C199.01 444.517 198.595 444.738 198.314 445.122C198.087 445.433 197.993 445.794 198.006 446.152C197.976 446.507 198.053 446.874 198.266 447.195C198.534 447.589 198.94 447.827 199.375 447.898L212.955 457.689C213.692 458.216 214.719 458.057 215.253 457.331C215.785 456.606 215.623 455.585 214.888 455.058L202.677 446.252L215.263 437.984C216.022 437.487 216.227 436.478 215.727 435.726C215.225 434.979 214.207 434.775 213.448 435.271Z" stroke="#D47F00" stroke-width="1.33333"/>
<path d="M228.452 435.271L214.455 444.465C214.016 444.516 213.593 444.737 213.315 445.118C213.087 445.429 212.993 445.794 213.006 446.152C212.976 446.507 213.054 446.873 213.269 447.198C213.532 447.586 213.943 447.826 214.378 447.897L227.958 457.688C228.691 458.218 229.72 458.056 230.25 457.326C230.786 456.605 230.625 455.584 229.892 455.057L217.675 446.251L230.265 437.985C231.023 437.487 231.228 436.478 230.724 435.728C230.226 434.979 229.206 434.775 228.452 435.271" fill="#4E4C4F"/>
<path fill-rule="evenodd" clip-rule="evenodd" d="M228.452 435.271L214.455 444.465C214.016 444.516 213.593 444.737 213.315 445.118C213.087 445.429 212.993 445.794 213.006 446.152C212.976 446.507 213.054 446.873 213.269 447.198C213.532 447.586 213.943 447.826 214.378 447.897L227.958 457.688C228.691 458.218 229.72 458.056 230.25 457.326C230.786 456.605 230.625 455.584 229.892 455.057L217.675 446.251L230.265 437.985C231.023 437.487 231.228 436.478 230.724 435.728C230.226 434.979 229.206 434.775 228.452 435.271Z" stroke="#D47F00" stroke-width="1.33333"/>
<path d="M242.447 435.271L228.452 444.465C228.012 444.518 227.592 444.739 227.314 445.119C227.084 445.432 226.992 445.792 227.007 446.153C226.975 446.506 227.053 446.875 227.268 447.196C227.529 447.591 227.938 447.831 228.379 447.895L241.954 457.689C242.693 458.218 243.72 458.056 244.252 457.331C244.786 456.602 244.622 455.582 243.891 455.056L231.678 446.253L244.266 437.985C245.02 437.487 245.228 436.478 244.726 435.728C244.227 434.979 243.206 434.775 242.447 435.271" fill="#4E4C4F"/>
<path fill-rule="evenodd" clip-rule="evenodd" d="M242.447 435.271L228.452 444.465C228.012 444.518 227.592 444.739 227.314 445.119C227.084 445.432 226.992 445.792 227.007 446.153C226.975 446.506 227.053 446.875 227.268 447.196C227.529 447.591 227.938 447.831 228.379 447.895L241.954 457.689C242.693 458.218 243.72 458.056 244.252 457.331C244.786 456.602 244.622 455.582 243.891 455.056L231.678 446.253L244.266 437.985C245.02 437.487 245.228 436.478 244.726 435.728C244.227 434.979 243.206 434.775 242.447 435.271Z" stroke="#D47F00" stroke-width="1.33333"/>
<path d="M257.451 435.271L243.449 444.464C243.009 444.518 242.594 444.739 242.312 445.119C242.084 445.43 241.988 445.795 242.007 446.153C241.975 446.507 242.051 446.875 242.268 447.196C242.531 447.591 242.937 447.831 243.374 447.899L256.956 457.686C257.688 458.218 258.72 458.056 259.253 457.331C259.785 456.603 259.625 455.582 258.888 455.057L246.676 446.253L259.263 437.987C260.022 437.487 260.227 436.478 259.727 435.729C259.225 434.979 258.204 434.775 257.451 435.271" fill="#4E4C4F"/>
<path fill-rule="evenodd" clip-rule="evenodd" d="M257.451 435.271L243.449 444.464C243.009 444.518 242.594 444.739 242.312 445.119C242.084 445.43 241.988 445.795 242.007 446.153C241.975 446.507 242.051 446.875 242.268 447.196C242.531 447.591 242.937 447.831 243.374 447.899L256.956 457.686C257.688 458.218 258.72 458.056 259.253 457.331C259.785 456.603 259.625 455.582 258.888 455.057L246.676 446.253L259.263 437.987C260.022 437.487 260.227 436.478 259.727 435.729C259.225 434.979 258.204 434.775 257.451 435.271Z" stroke="#D47F00" stroke-width="1.33333"/>
<path d="M65.4479 631.271L51.4497 640.463C51.0095 640.517 50.595 640.738 50.3136 641.122C50.0867 641.433 49.9929 641.794 50.0065 642.152C49.9758 642.507 50.0526 642.874 50.2658 643.195C50.5336 643.589 50.9396 643.827 51.3746 643.898L64.9549 653.689C65.6919 654.216 66.7188 654.057 67.2527 653.331C67.7849 652.606 67.6229 651.585 66.8877 651.058L54.6771 642.252L67.263 633.984C68.0221 633.487 68.2268 632.478 67.7269 631.726C67.2254 630.979 66.207 630.775 65.4479 631.271" fill="#4E4C4F"/>
<path fill-rule="evenodd" clip-rule="evenodd" d="M65.4479 631.271L51.4497 640.463C51.0095 640.517 50.595 640.738 50.3136 641.122C50.0867 641.433 49.9929 641.794 50.0065 642.152C49.9758 642.507 50.0526 642.874 50.2658 643.195C50.5336 643.589 50.9396 643.827 51.3746 643.898L64.9549 653.689C65.6919 654.216 66.7188 654.057 67.2527 653.331C67.7849 652.606 67.6229 651.585 66.8877 651.058L54.6771 642.252L67.263 633.984C68.0221 633.487 68.2268 632.478 67.7269 631.726C67.2254 630.979 66.207 630.775 65.4479 631.271Z" stroke="#D47F00" stroke-width="1.33333"/>
<path d="M79.4522 631.271L65.4546 640.465C65.0162 640.516 64.5932 640.737 64.3151 641.117C64.0866 641.428 63.9928 641.793 64.0064 642.151C63.9757 642.506 64.0542 642.873 64.2691 643.197C64.5318 643.586 64.9429 643.826 65.3778 643.897L78.9575 653.687C79.691 654.219 80.7196 654.055 81.2501 653.326C81.7857 652.604 81.6254 651.583 80.8919 651.056L68.6751 642.251L81.2655 633.985C82.0228 633.487 82.2275 632.478 81.7243 631.728C81.2262 630.979 80.2062 630.775 79.4522 631.271" fill="#4E4C4F"/>
<path fill-rule="evenodd" clip-rule="evenodd" d="M79.4522 631.271L65.4546 640.465C65.0162 640.516 64.5932 640.737 64.3151 641.117C64.0866 641.428 63.9928 641.793 64.0064 642.151C63.9757 642.506 64.0542 642.873 64.2691 643.197C64.5318 643.586 64.9429 643.826 65.3778 643.897L78.9575 653.687C79.691 654.219 80.7196 654.055 81.2501 653.326C81.7857 652.604 81.6254 651.583 80.8919 651.056L68.6751 642.251L81.2655 633.985C82.0228 633.487 82.2275 632.478 81.7243 631.728C81.2262 630.979 80.2062 630.775 79.4522 631.271Z" stroke="#D47F00" stroke-width="1.33333"/>
<path d="M94.4473 631.271L80.4519 640.465C80.0118 640.518 79.5922 640.739 79.3141 641.119C79.0838 641.432 78.9917 641.792 79.007 642.153C78.9746 642.506 79.0531 642.875 79.268 643.196C79.529 643.591 79.9385 643.831 80.3786 643.895L93.9543 653.689C94.693 654.218 95.72 654.056 96.2522 653.331C96.7862 652.602 96.6224 651.582 95.8905 651.056L83.6778 642.253L96.2659 633.985C97.0199 633.487 97.228 632.478 96.7265 631.728C96.2266 630.979 95.2065 630.775 94.4473 631.271" fill="#4E4C4F"/>
<path fill-rule="evenodd" clip-rule="evenodd" d="M94.4473 631.271L80.4519 640.465C80.0118 640.518 79.5922 640.739 79.3141 641.119C79.0838 641.432 78.9917 641.792 79.007 642.153C78.9746 642.506 79.0531 642.875 79.268 643.196C79.529 643.591 79.9385 643.831 80.3786 643.895L93.9543 653.689C94.693 654.218 95.72 654.056 96.2522 653.331C96.7862 652.602 96.6224 651.582 95.8905 651.056L83.6778 642.253L96.2659 633.985C97.0199 633.487 97.228 632.478 96.7265 631.728C96.2266 630.979 95.2065 630.775 94.4473 631.271Z" stroke="#D47F00" stroke-width="1.33333"/>
<path d="M109.451 631.271L95.4487 640.464C95.0085 640.518 94.594 640.739 94.3125 641.119C94.0839 641.43 93.9884 641.795 94.0071 642.153C93.9747 642.507 94.0515 642.875 94.2681 643.196C94.5308 643.591 94.9369 643.831 95.3736 643.899L108.956 653.686C109.688 654.218 110.72 654.056 111.253 653.331C111.785 652.603 111.625 651.582 110.888 651.057L98.6763 642.253L111.263 633.987C112.022 633.487 112.227 632.478 111.727 631.729C111.225 630.979 110.204 630.775 109.451 631.271" fill="#4E4C4F"/>
<path fill-rule="evenodd" clip-rule="evenodd" d="M109.451 631.271L95.4487 640.464C95.0085 640.518 94.594 640.739 94.3125 641.119C94.0839 641.43 93.9884 641.795 94.0071 642.153C93.9747 642.507 94.0515 642.875 94.2681 643.196C94.5308 643.591 94.9369 643.831 95.3736 643.899L108.956 653.686C109.688 654.218 110.72 654.056 111.253 653.331C111.785 652.603 111.625 651.582 110.888 651.057L98.6763 642.253L111.263 633.987C112.022 633.487 112.227 632.478 111.727 631.729C111.225 630.979 110.204 630.775 109.451 631.271Z" stroke="#D47F00" stroke-width="1.33333"/>
<path fill-rule="evenodd" clip-rule="evenodd" d="M961.322 314.4C960.121 311.28 959.461 307.903 959.461 304.37C959.461 288.798 972.182 276.181 987.879 276.181C1000.61 276.181 1011.38 284.489 1014.99 295.944C1018.35 291.242 1023.88 288.174 1030.13 288.174C1040.38 288.174 1048.68 296.414 1048.68 306.575C1048.68 309.231 1048.11 311.753 1047.08 314.038H1057.46C1064.46 314.038 1070.13 319.667 1070.13 326.618C1070.13 333.554 1064.46 339.189 1057.46 339.189H964.342C957.343 339.189 951.669 333.554 951.669 326.618C951.669 320.705 955.781 315.745 961.322 314.4Z" stroke="#D47F00" stroke-width="1.33333"/>
<path d="M152 127L87 127V125L152 125V127Z" fill="#4E4C4F"/>
<path d="M236 127L171 127V125L236 125V127Z" fill="#4E4C4F"/>
<path d="M254 127H248V125H254V127Z" fill="#4E4C4F"/>
<path d="M302 112.857L266.35 95.5979V129.932H266.73H337.266H337.566V95.6374L302 112.857Z" fill="#FFA000"/>
<path fill-rule="evenodd" clip-rule="evenodd" d="M302 112.857L266.35 95.5979V129.932H266.73H337.266H337.566V95.6374L302 112.857Z" stroke="#4E4C4F" stroke-width="4" stroke-linecap="square" stroke-linejoin="round"/>
<path d="M338 95.435V95.3759H266.783V95.395L302.433 124.494L338 95.435Z" fill="#FFA000"/>
<path fill-rule="evenodd" clip-rule="evenodd" d="M338 95.435V95.3759H266.783V95.395L302.433 124.494L338 95.435Z" stroke="#4E4C4F" stroke-width="4" stroke-linecap="square" stroke-linejoin="round"/>
<path d="M124 236.431H72.3828L72.3828 285.308H84.9893L82.1397 301.952L94.8191 285.308H124V236.431Z" fill="#D47F00"/>
<path d="M95.9091 268C95.2061 268 94.5394 267.714 94.0488 267.21L89.836 262.868C88.8584 261.856 88.8981 260.258 89.9241 259.293C90.9553 258.335 92.5737 258.369 93.5514 259.378L95.7588 261.664L103.21 252.726C104.105 251.643 105.729 251.484 106.82 252.368C107.922 253.256 108.074 254.845 107.176 255.923L97.892 267.07C97.4256 267.635 96.7365 267.964 96.0076 267.988C95.9747 268 95.9402 268 95.9091 268" fill="#4E4C4F"/>
<path d="M171.133 541.5L133.763 521.42V561.588L171.133 541.5L133.763 521.42V561.588L171.133 541.5Z" fill="#C55774"/>
<path d="M948 169L1074 169V165L948 165V169Z" fill="#4E4C4F"/>
<path d="M710 198H717V205H710V198Z" fill="#4E4C4F"/>
<path d="M694 198H701V205H694V198Z" fill="#4E4C4F"/>
<path d="M679 198H686V205H679V198Z" fill="#4E4C4F"/>
<path d="M663 198H670V205H663V198Z" fill="#4E4C4F"/>
<path d="M647 198H654V205H647V198Z" fill="#4E4C4F"/>
<path d="M631 198H638V205H631V198Z" fill="#4E4C4F"/>
<path d="M615 198H622V205H615V198Z" fill="#4E4C4F"/>
<path d="M599 198H606V205H599V198Z" fill="#4E4C4F"/>
<path d="M583 198H590V205H583V198Z" fill="#4E4C4F"/>
<path d="M567 198H574V205H567V198Z" fill="#4E4C4F"/>
<path d="M551 198H558V205H551V198Z" fill="#4E4C4F"/>
<path d="M535 198H542V205H535V198Z" fill="#4E4C4F"/>
<path d="M519 198H526V205H519V198Z" fill="#4E4C4F"/>
<path d="M634.14 61.4276L555.917 61.4276V97.7609H605.087L602.96 110.132L612.406 97.7609L634.14 97.7609V61.4276Z" fill="#D47F00"/>
<path d="M627 83L563 83V86L627 86V83Z" fill="#4E4C4F"/>
<path d="M605 72H563V75H605V72Z" fill="#4E4C4F"/>
<path d="M859.5 123.5C859.776 123.228 860.048 122.958 860.328 122.691C860.153 122.859 859.928 123.083 859.5 123.5" fill="white"/>
<path d="M964.5 213.5L964.514 213.482C964.506 213.489 964.497 213.498 964.491 213.506L964.49 213.507C964.491 213.506 964.494 213.506 964.5 213.5" fill="white"/>
<path d="M883 166.5C883 183.682 868.913 197.614 851.536 197.614C834.163 197.614 820.074 183.682 820.074 166.5C820.074 149.316 834.163 135.385 851.536 135.385C868.913 135.385 883 149.316 883 166.5" fill="white"/>
<path d="M791.154 746H759.981V716.07H767.597L765.877 705.878L773.532 716.07H791.154V746Z" fill="#95CD8B"/>
<path d="M774.033 726.568C773.607 726.568 773.202 726.746 772.908 727.058L770.353 729.757C769.762 730.386 769.786 731.38 770.407 731.98C771.03 732.576 772.011 732.554 772.605 731.929L773.944 730.506L778.459 736.063C779.002 736.734 779.984 736.832 780.645 736.283C781.314 735.731 781.405 734.744 780.86 734.074L775.233 727.145C774.952 726.795 774.534 726.59 774.093 726.575C774.074 726.568 774.052 726.568 774.033 726.568" fill="#4E4C4F"/>
<path fill-rule="evenodd" clip-rule="evenodd" d="M149 39H275V43H149V39Z" stroke="#D47F00" stroke-width="1.33333"/>
<path fill-rule="evenodd" clip-rule="evenodd" d="M192 26H275V30H192V26Z" stroke="#D47F00" stroke-width="1.33333"/>
<path fill-rule="evenodd" clip-rule="evenodd" d="M103 5H107V1H103V5Z" stroke="#D47F00" stroke-width="1.33333"/>
<path fill-rule="evenodd" clip-rule="evenodd" d="M94 5H98V1H94V5Z" stroke="#D47F00" stroke-width="1.33333"/>
<path fill-rule="evenodd" clip-rule="evenodd" d="M86 5H90V1H86V5Z" stroke="#D47F00" stroke-width="1.33333"/>
<path fill-rule="evenodd" clip-rule="evenodd" d="M77 5H81V1H77V5Z" stroke="#D47F00" stroke-width="1.33333"/>
<path fill-rule="evenodd" clip-rule="evenodd" d="M69 5H73V1H69V5Z" stroke="#D47F00" stroke-width="1.33333"/>
<path fill-rule="evenodd" clip-rule="evenodd" d="M60 5H64V1H60V5Z" stroke="#D47F00" stroke-width="1.33333"/>
<path fill-rule="evenodd" clip-rule="evenodd" d="M52 5H56V1H52V5Z" stroke="#D47F00" stroke-width="1.33333"/>
<path fill-rule="evenodd" clip-rule="evenodd" d="M43 5H47V1H43V5Z" stroke="#D47F00" stroke-width="1.33333"/>
<path fill-rule="evenodd" clip-rule="evenodd" d="M35 5H39V1H35V5Z" stroke="#D47F00" stroke-width="1.33333"/>
<path fill-rule="evenodd" clip-rule="evenodd" d="M26 5H30V1H26L26 5Z" stroke="#D47F00" stroke-width="1.33333"/>
<path fill-rule="evenodd" clip-rule="evenodd" d="M18 5H22V1H18V5Z" stroke="#D47F00" stroke-width="1.33333"/>
<path fill-rule="evenodd" clip-rule="evenodd" d="M9 5H13V1H9V5Z" stroke="#D47F00" stroke-width="1.33333"/>
<path fill-rule="evenodd" clip-rule="evenodd" d="M1 5H5V1H1V5Z" stroke="#D47F00" stroke-width="1.33333"/>
<mask id="mask2_204_1177" style="mask-type:luminance" maskUnits="userSpaceOnUse" x="821" y="135" width="63" height="63">
<path fill-rule="evenodd" clip-rule="evenodd" d="M883.757 166.407C883.757 183.627 869.794 197.59 852.576 197.59V197.59C835.354 197.59 821.393 183.627 821.393 166.407V166.407C821.393 149.186 835.354 135.225 852.576 135.225V135.225C869.794 135.225 883.757 149.186 883.757 166.407" fill="white"/>
</mask>
<g mask="url(#mask2_204_1177)">
<path d="M840.973 160.582C840.973 166.99 846.167 172.186 852.575 172.186C858.983 172.186 864.176 166.99 864.176 160.582C864.176 154.174 858.983 148.98 852.575 148.98C846.167 148.98 840.973 154.174 840.973 160.582" fill="white"/>
<path fill-rule="evenodd" clip-rule="evenodd" d="M840.973 160.582C840.973 166.99 846.167 172.186 852.575 172.186C858.983 172.186 864.176 166.99 864.176 160.582C864.176 154.174 858.983 148.98 852.575 148.98C846.167 148.98 840.973 154.174 840.973 160.582Z" stroke="#4E4C4F" stroke-width="4"/>
<path d="M832.272 214.407C832.272 220.282 837.031 225.044 842.911 225.044H862.245C868.118 225.044 872.882 220.282 872.882 214.407V182.744C872.882 176.871 868.118 172.109 862.245 172.109H842.911C837.031 172.109 832.272 176.871 832.272 182.744V214.407Z" fill="white"/>
<path fill-rule="evenodd" clip-rule="evenodd" d="M832.272 214.407C832.272 220.282 837.031 225.044 842.911 225.044H862.245C868.118 225.044 872.882 220.282 872.882 214.407V182.744C872.882 176.871 868.118 172.109 862.245 172.109H842.911C837.031 172.109 832.272 176.871 832.272 182.744V214.407Z" stroke="#4E4C4F" stroke-width="4"/>
<path d="M863.454 182.622V219.244Z" fill="white"/>
<path d="M863.454 182.622V219.244" stroke="#4E4C4F" stroke-width="4"/>
<path d="M841.699 182.622V219.244Z" fill="white"/>
<path d="M841.699 182.622V219.244" stroke="#4E4C4F" stroke-width="4"/>
</g>
</svg>
